<?xml version="1.0" standalone="no"?>
<!DOCTYPE svg PUBLIC "-//W3C//DTD SVG 20010904//EN"
 "http://www.w3.org/TR/2001/REC-SVG-20010904/DTD/svg10.dtd">
<svg version="1.0" xmlns="http://www.w3.org/2000/svg"
 width="480.000000pt" height="290.000000pt" viewBox="0 0 480.000000 290.000000"
 preserveAspectRatio="xMidYMid meet">
<metadata>
Created by potrace 1.16, written by Peter Selinger 2001-2019
</metadata>
<g transform="translate(0.000000,290.000000) scale(0.100000,-0.100000)"
fill="#000000" stroke="none">
<path d="M2022 1994 c-12 -8 -22 -24 -22 -35 0 -25 17 -25 25 1 13 41 90 36
90 -6 0 -13 -13 -22 -45 -31 -49 -14 -70 -35 -70 -69 0 -52 65 -71 113 -34 16
13 28 16 32 10 8 -12 45 -13 45 -1 0 5 -6 11 -14 14 -9 4 -17 29 -21 72 -4 36
-14 73 -22 81 -19 19 -83 18 -111 -2z"/>
<path d="M2784 1825 c-21 -16 -14 -19 37 -15 30 1 59 -23 59 -50 0 -27 -20
-30 -62 -9 -21 11 -48 19 -61 19 -28 0 -57 -28 -57 -57 0 -27 41 -63 71 -63
15 0 28 -8 34 -22 12 -27 42 -39 32 -13 -5 11 7 37 34 75 48 69 47 99 -4 130
-38 24 -57 25 -83 5z"/>
<path d="M1480 1740 c-11 -11 -20 -29 -20 -40 0 -13 -7 -20 -20 -20 -28 0 -60
-35 -60 -66 0 -22 -3 -24 -14 -15 -11 9 -16 9 -21 0 -10 -15 126 -152 139
-139 6 6 -8 28 -37 59 -53 57 -63 102 -27 121 18 10 28 3 80 -45 75 -73 101
-64 31 10 -51 54 -63 89 -39 113 22 22 43 13 98 -43 36 -37 57 -52 64 -45 15
15 -102 130 -131 130 -13 0 -32 -9 -43 -20z"/>
<path d="M3073 1470 c-59 -35 -72 -102 -28 -145 24 -25 75 -35 75 -15 0 6 -6
10 -14 10 -24 0 -66 41 -66 64 0 21 35 65 44 55 2 -2 19 -32 38 -67 l35 -62
25 20 c37 28 49 69 33 107 -23 55 -83 69 -142 33z"/>
<path d="M1087 1225 c-47 -48 -44 -127 7 -161 41 -26 72 -12 102 49 47 93 78
110 111 61 15 -23 15 -30 2 -68 -11 -32 -21 -43 -46 -51 -44 -12 -44 -37 -1
-33 70 7 108 137 55 186 -34 32 -81 29 -105 -5 -11 -16 -22 -37 -26 -48 -3
-11 -17 -33 -30 -50 -23 -29 -24 -29 -50 -12 -18 12 -26 26 -26 46 0 31 34 81
55 81 7 0 15 7 19 15 9 25 -38 18 -67 -10z"/>
<path d="M2847 1157 c10 -51 108 -193 153 -223 43 -29 53 -26 64 18 5 22 -3
37 -52 94 -70 84 -118 127 -148 136 -21 6 -23 4 -17 -25z"/>
<path d="M2251 1111 c-11 -7 -10 -10 5 -14 10 -2 -10 -5 -46 -6 -57 -1 -69 -5
-97 -30 -17 -16 -40 -42 -50 -57 l-18 -27 29 18 c27 18 29 18 41 1 9 -11 12
-44 10 -99 -3 -86 7 -122 44 -167 18 -21 20 -21 15 -5 -4 12 16 -2 49 -35 l57
-54 87 -6 c49 -3 98 -11 110 -18 13 -7 33 -10 46 -7 32 8 52 -16 38 -44 -24
-44 20 -99 102 -127 54 -18 77 -53 77 -119 0 -84 64 -152 66 -70 0 24 9 44 28
64 16 16 25 34 22 40 -4 6 -3 11 3 11 23 0 101 191 101 246 0 18 -4 44 -10 58
-9 24 -14 26 -72 25 -35 0 -101 1 -148 2 -112 2 -164 -9 -168 -37 -5 -32 -61
-42 -84 -14 -9 11 -25 20 -37 20 -12 0 -26 11 -34 26 l-13 25 -12 -25 c-17
-38 -47 -33 -70 10 -6 11 -8 31 -5 43 10 40 93 67 121 39 15 -15 16 -3 2 22
-7 13 -6 36 5 77 26 98 35 122 53 126 9 3 4 5 -12 6 l-29 1 21 23 c34 36 28
54 -19 59 -22 2 -43 0 -46 -5 -2 -4 -14 -5 -25 -1 -19 6 -20 3 -14 -35 6 -39
-4 -55 -20 -30 -3 6 -19 9 -35 5 -37 -7 -44 6 -24 45 9 17 15 32 13 34 -11 10
-45 13 -57 6z"/>
</g>
</svg>
